{
  "accessors": [
    {
      "bufferView": 2,
      "componentType": 5126,
      "count": 27197,
      "max": [
        4.361270904541016,
        -17.721750259399414,
        3.3877179622650146
      ],
      "min": [
        -8.628775596618652,
        -31.777904510498047,
        -4.4276909828186035
      ],
      "type": "VEC3"
    },
    {
      "bufferView": 2,
      "byteOffset": 326364,
      "componentType": 5126,
      "count": 27197,
      "max": [
        0.9995981454849243,
        0.9999565482139587,
        0.9999869465827942
      ],
      "min": [
        -0.9999368190765381,
        -0.9999930262565613,
        -0.9998762011528015
      ],
      "type": "VEC3"
    },
    {
      "bufferView": 1,
      "componentType": 5126,
      "count": 27197,
      "max": [
        0.9879230260848999,
        0.9999619722366333
      ],
      "min": [
        0.0002969999914057553,
        0.0
      ],
      "type": "VEC2"
    },
    {
      "bufferView": 0,
      "componentType": 5125,
      "count": 132795,
      "type": "SCALAR"
    }
  ],
  "asset": {
    "extras": {
      "author": "alban (https://sketchfab.com/alban)",
      "license": "CC-BY-4.0 (http://creativecommons.org/licenses/by/4.0/)",
      "source": "https://sketchfab.com/3d-models/uss-growlers-periscope-e3dedae5447d42afa3c81b9b2b4fb75c",
      "title": "USS Growler's Periscope"
    },
    "generator": "Sketchfab-12.64.0",
    "version": "2.0"
  },
  "bufferViews": [
    {
      "buffer": 0,
      "byteLength": 531180,
      "name": "floatBufferViews",
      "target": 34963
    },
    {
      "buffer": 0,
      "byteLength": 217576,
      "byteOffset": 531180,
      "byteStride": 8,
      "name": "floatBufferViews",
      "target": 34962
    },
    {
      "buffer": 0,
      "byteLength": 652728,
      "byteOffset": 748756,
      "byteStride": 12,
      "name": "floatBufferViews",
      "target": 34962
    }
  ],
  "buffers": [
    {
      "byteLength": 1401484,
      "uri": "scene.bin"
    }
  ],
  "extensionsUsed": [
    "KHR_materials_unlit"
  ],
  "images": [
    {
      "uri": "textures/model_baseColor.jpeg"
    }
  ],
  "materials": [
    {
      "doubleSided": true,
      "extensions": {
        "KHR_materials_unlit": {}
      },
      "name": "model",
      "pbrMetallicRoughness": {
        "baseColorTexture": {
          "index": 0
        },
        "metallicFactor": 0.0
      }
    }
  ],
  "meshes": [
    {
      "name": "Object_0",
      "primitives": [
        {
          "attributes": {
            "NORMAL": 1,
            "POSITION": 0,
            "TEXCOORD_0": 2
          },
          "indices": 3,
          "material": 0,
          "mode": 4
        }
      ]
    }
  ],
  "nodes": [
    {
      "children": [
        1
      ],
      "matrix": [
        0.038876235485076904,
        -0.9973645210266113,
        0.06125893071293809,
        0.0,
        0.0019149756990373135,
        -0.0612307973206041,
        -0.9981217980384827,
        0.0,
        0.9992421865463257,
        0.038920529186725616,
        -0.00047049412387422355,
        0.0,
        -1.3862872123718262,
        -4.045781135559082,
        0.39124619960784823,
        1.0
      ],
      "name": "Sketchfab_model"
    },
    {
      "children": [
        2
      ],
      "name": "model.obj.cleaner.materialmerger.gles"
    },
    {
      "mesh": 0,
      "name": "Object_2"
    }
  ],
  "samplers": [
    {
      "magFilter": 9729,
      "minFilter": 9987,
      "wrapS": 10497,
      "wrapT": 10497
    }
  ],
  "scene": 0,
  "scenes": [
    {
      "name": "Sketchfab_Scene",
      "nodes": [
        0
      ]
    }
  ],
  "textures": [
    {
      "sampler": 0,
      "source": 0
    }
  ]
}
